<mxfile host="app.diagrams.net" modified="2022-10-27T19:06:21.989Z" agent="5.0 (Windows NT 10.0; Win64; x64) AppleWebKit/537.36 (KHTML, like Gecko) Chrome/106.0.0.0 Safari/537.36 Edg/106.0.1370.52" etag="WM3s0zTPA002jHDyl26B" version="20.5.1" type="github">
  <diagram id="OuCA6Z6qn1cnjy3By454" name="Página-1">
    <mxGraphModel dx="1422" dy="786" grid="1" gridSize="10" guides="1" tooltips="1" connect="1" arrows="1" fold="1" page="1" pageScale="1" pageWidth="827" pageHeight="1169" background="#DAD2D8" math="0" shadow="0">
      <root>
        <mxCell id="0" />
        <mxCell id="1" parent="0" />
        <mxCell id="RniL1hwwyDk1dEtWbafb-9" style="edgeStyle=orthogonalEdgeStyle;rounded=1;orthogonalLoop=1;jettySize=auto;html=1;entryX=0;entryY=0.5;entryDx=0;entryDy=0;labelBackgroundColor=#DAD2D8;strokeColor=#A8201A;fontColor=#143642;sketch=1;" parent="1" source="RniL1hwwyDk1dEtWbafb-2" target="RniL1hwwyDk1dEtWbafb-6" edge="1">
          <mxGeometry relative="1" as="geometry">
            <Array as="points">
              <mxPoint x="120" y="405" />
            </Array>
          </mxGeometry>
        </mxCell>
        <mxCell id="RniL1hwwyDk1dEtWbafb-2" value="Pessoa" style="whiteSpace=wrap;html=1;align=center;rounded=1;fillColor=#FAE5C7;strokeColor=#0F8B8D;fontColor=#143642;sketch=1;" parent="1" vertex="1">
          <mxGeometry x="90" y="200" width="80" height="40" as="geometry" />
        </mxCell>
        <mxCell id="RniL1hwwyDk1dEtWbafb-8" style="edgeStyle=orthogonalEdgeStyle;rounded=1;orthogonalLoop=1;jettySize=auto;html=1;entryX=0.5;entryY=0;entryDx=0;entryDy=0;labelBackgroundColor=#DAD2D8;strokeColor=#A8201A;fontColor=#143642;sketch=1;" parent="1" source="RniL1hwwyDk1dEtWbafb-3" target="RniL1hwwyDk1dEtWbafb-6" edge="1">
          <mxGeometry relative="1" as="geometry" />
        </mxCell>
        <mxCell id="RniL1hwwyDk1dEtWbafb-3" value="Banco" style="whiteSpace=wrap;html=1;align=center;rounded=1;fillColor=#FAE5C7;strokeColor=#0F8B8D;fontColor=#143642;sketch=1;" parent="1" vertex="1">
          <mxGeometry x="295" y="140" width="100" height="40" as="geometry" />
        </mxCell>
        <mxCell id="RniL1hwwyDk1dEtWbafb-14" style="edgeStyle=orthogonalEdgeStyle;rounded=1;orthogonalLoop=1;jettySize=auto;html=1;entryX=1;entryY=0.5;entryDx=0;entryDy=0;labelBackgroundColor=#DAD2D8;strokeColor=#A8201A;fontColor=#143642;sketch=1;" parent="1" source="RniL1hwwyDk1dEtWbafb-4" target="RniL1hwwyDk1dEtWbafb-6" edge="1">
          <mxGeometry relative="1" as="geometry">
            <Array as="points">
              <mxPoint x="580" y="405" />
            </Array>
          </mxGeometry>
        </mxCell>
        <mxCell id="RniL1hwwyDk1dEtWbafb-4" value="Company" style="whiteSpace=wrap;html=1;align=center;rounded=1;fillColor=#FAE5C7;strokeColor=#0F8B8D;fontColor=#143642;sketch=1;" parent="1" vertex="1">
          <mxGeometry x="530" y="200" width="100" height="30" as="geometry" />
        </mxCell>
        <mxCell id="RniL1hwwyDk1dEtWbafb-6" value="U" style="ellipse;whiteSpace=wrap;html=1;aspect=fixed;rounded=1;fillColor=#FAE5C7;strokeColor=#0F8B8D;fontColor=#143642;sketch=1;" parent="1" vertex="1">
          <mxGeometry x="320" y="380" width="50" height="50" as="geometry" />
        </mxCell>
        <mxCell id="RniL1hwwyDk1dEtWbafb-16" style="edgeStyle=orthogonalEdgeStyle;rounded=1;orthogonalLoop=1;jettySize=auto;html=1;entryX=0.5;entryY=1;entryDx=0;entryDy=0;labelBackgroundColor=#DAD2D8;strokeColor=#A8201A;fontColor=#143642;sketch=1;" parent="1" source="RniL1hwwyDk1dEtWbafb-15" target="RniL1hwwyDk1dEtWbafb-6" edge="1">
          <mxGeometry relative="1" as="geometry" />
        </mxCell>
        <mxCell id="RniL1hwwyDk1dEtWbafb-15" value="Owner" style="whiteSpace=wrap;html=1;align=center;rounded=1;fillColor=#FAE5C7;strokeColor=#0F8B8D;fontColor=#143642;sketch=1;" parent="1" vertex="1">
          <mxGeometry x="305" y="520" width="80" height="40" as="geometry" />
        </mxCell>
        <mxCell id="RniL1hwwyDk1dEtWbafb-19" style="edgeStyle=orthogonalEdgeStyle;rounded=1;orthogonalLoop=1;jettySize=auto;html=1;entryX=0.5;entryY=0;entryDx=0;entryDy=0;labelBackgroundColor=#DAD2D8;strokeColor=#A8201A;fontColor=#143642;sketch=1;" parent="1" source="RniL1hwwyDk1dEtWbafb-17" target="RniL1hwwyDk1dEtWbafb-2" edge="1">
          <mxGeometry relative="1" as="geometry" />
        </mxCell>
        <mxCell id="RniL1hwwyDk1dEtWbafb-17" value="Licença" style="ellipse;whiteSpace=wrap;html=1;align=center;fontStyle=4;rounded=1;fillColor=#FAE5C7;strokeColor=#0F8B8D;fontColor=#143642;sketch=1;" parent="1" vertex="1">
          <mxGeometry x="80" y="60" width="100" height="40" as="geometry" />
        </mxCell>
        <mxCell id="RniL1hwwyDk1dEtWbafb-20" style="edgeStyle=orthogonalEdgeStyle;rounded=1;orthogonalLoop=1;jettySize=auto;html=1;entryX=0;entryY=0.5;entryDx=0;entryDy=0;labelBackgroundColor=#DAD2D8;strokeColor=#A8201A;fontColor=#143642;sketch=1;" parent="1" source="RniL1hwwyDk1dEtWbafb-18" target="RniL1hwwyDk1dEtWbafb-2" edge="1">
          <mxGeometry relative="1" as="geometry" />
        </mxCell>
        <mxCell id="RniL1hwwyDk1dEtWbafb-18" value="CPF" style="ellipse;whiteSpace=wrap;html=1;align=center;fontStyle=4;rounded=1;fillColor=#FAE5C7;strokeColor=#0F8B8D;fontColor=#143642;sketch=1;" parent="1" vertex="1">
          <mxGeometry x="10" y="130" width="100" height="40" as="geometry" />
        </mxCell>
        <mxCell id="RniL1hwwyDk1dEtWbafb-23" style="edgeStyle=orthogonalEdgeStyle;rounded=1;orthogonalLoop=1;jettySize=auto;html=1;entryX=1;entryY=0.5;entryDx=0;entryDy=0;labelBackgroundColor=#DAD2D8;strokeColor=#A8201A;fontColor=#143642;sketch=1;" parent="1" source="RniL1hwwyDk1dEtWbafb-21" target="RniL1hwwyDk1dEtWbafb-2" edge="1">
          <mxGeometry relative="1" as="geometry">
            <Array as="points">
              <mxPoint x="240" y="170" />
              <mxPoint x="190" y="170" />
              <mxPoint x="190" y="220" />
            </Array>
          </mxGeometry>
        </mxCell>
        <mxCell id="RniL1hwwyDk1dEtWbafb-21" value="Nome" style="ellipse;whiteSpace=wrap;html=1;align=center;fontStyle=4;rounded=1;fillColor=#FAE5C7;strokeColor=#0F8B8D;fontColor=#143642;sketch=1;" parent="1" vertex="1">
          <mxGeometry x="190" y="100" width="100" height="40" as="geometry" />
        </mxCell>
        <mxCell id="RniL1hwwyDk1dEtWbafb-24" style="edgeStyle=orthogonalEdgeStyle;rounded=1;orthogonalLoop=1;jettySize=auto;html=1;labelBackgroundColor=#DAD2D8;strokeColor=#A8201A;fontColor=#143642;sketch=1;" parent="1" source="RniL1hwwyDk1dEtWbafb-22" target="RniL1hwwyDk1dEtWbafb-2" edge="1">
          <mxGeometry relative="1" as="geometry">
            <Array as="points">
              <mxPoint x="140" y="280" />
            </Array>
          </mxGeometry>
        </mxCell>
        <mxCell id="RniL1hwwyDk1dEtWbafb-22" value="Endereço" style="ellipse;whiteSpace=wrap;html=1;align=center;fontStyle=4;rounded=1;fillColor=#FAE5C7;strokeColor=#0F8B8D;fontColor=#143642;sketch=1;" parent="1" vertex="1">
          <mxGeometry x="195" y="260" width="100" height="40" as="geometry" />
        </mxCell>
        <mxCell id="RniL1hwwyDk1dEtWbafb-29" style="edgeStyle=orthogonalEdgeStyle;rounded=1;orthogonalLoop=1;jettySize=auto;html=1;entryX=0.5;entryY=0;entryDx=0;entryDy=0;labelBackgroundColor=#DAD2D8;strokeColor=#A8201A;fontColor=#143642;sketch=1;" parent="1" source="RniL1hwwyDk1dEtWbafb-25" target="RniL1hwwyDk1dEtWbafb-3" edge="1">
          <mxGeometry relative="1" as="geometry" />
        </mxCell>
        <mxCell id="RniL1hwwyDk1dEtWbafb-25" value="BNome" style="ellipse;whiteSpace=wrap;html=1;align=center;fontStyle=4;rounded=1;fillColor=#FAE5C7;strokeColor=#0F8B8D;fontColor=#143642;sketch=1;" parent="1" vertex="1">
          <mxGeometry x="295" y="40" width="100" height="40" as="geometry" />
        </mxCell>
        <mxCell id="RniL1hwwyDk1dEtWbafb-30" style="edgeStyle=orthogonalEdgeStyle;rounded=1;orthogonalLoop=1;jettySize=auto;html=1;labelBackgroundColor=#DAD2D8;strokeColor=#A8201A;fontColor=#143642;sketch=1;" parent="1" source="RniL1hwwyDk1dEtWbafb-26" edge="1">
          <mxGeometry relative="1" as="geometry">
            <mxPoint x="390" y="160" as="targetPoint" />
            <Array as="points">
              <mxPoint x="470" y="160" />
              <mxPoint x="395" y="160" />
            </Array>
          </mxGeometry>
        </mxCell>
        <mxCell id="RniL1hwwyDk1dEtWbafb-26" value="BEndereço" style="ellipse;whiteSpace=wrap;html=1;align=center;fontStyle=4;rounded=1;fillColor=#FAE5C7;strokeColor=#0F8B8D;fontColor=#143642;sketch=1;" parent="1" vertex="1">
          <mxGeometry x="420" y="40" width="100" height="40" as="geometry" />
        </mxCell>
        <mxCell id="RniL1hwwyDk1dEtWbafb-31" style="edgeStyle=orthogonalEdgeStyle;rounded=1;orthogonalLoop=1;jettySize=auto;html=1;entryX=0.5;entryY=0;entryDx=0;entryDy=0;labelBackgroundColor=#DAD2D8;strokeColor=#A8201A;fontColor=#143642;sketch=1;" parent="1" source="RniL1hwwyDk1dEtWbafb-27" target="RniL1hwwyDk1dEtWbafb-4" edge="1">
          <mxGeometry relative="1" as="geometry" />
        </mxCell>
        <mxCell id="RniL1hwwyDk1dEtWbafb-27" value="CNome" style="ellipse;whiteSpace=wrap;html=1;align=center;fontStyle=4;rounded=1;fillColor=#FAE5C7;strokeColor=#0F8B8D;fontColor=#143642;sketch=1;" parent="1" vertex="1">
          <mxGeometry x="630" y="120" width="100" height="40" as="geometry" />
        </mxCell>
        <mxCell id="RniL1hwwyDk1dEtWbafb-32" style="edgeStyle=orthogonalEdgeStyle;rounded=1;orthogonalLoop=1;jettySize=auto;html=1;entryX=1;entryY=0.5;entryDx=0;entryDy=0;labelBackgroundColor=#DAD2D8;strokeColor=#A8201A;fontColor=#143642;sketch=1;" parent="1" source="RniL1hwwyDk1dEtWbafb-28" target="RniL1hwwyDk1dEtWbafb-4" edge="1">
          <mxGeometry relative="1" as="geometry">
            <Array as="points">
              <mxPoint x="690" y="215" />
            </Array>
          </mxGeometry>
        </mxCell>
        <mxCell id="RniL1hwwyDk1dEtWbafb-28" value="CEndereço" style="ellipse;whiteSpace=wrap;html=1;align=center;fontStyle=4;rounded=1;fillColor=#FAE5C7;strokeColor=#0F8B8D;fontColor=#143642;sketch=1;" parent="1" vertex="1">
          <mxGeometry x="640" y="250" width="100" height="40" as="geometry" />
        </mxCell>
      </root>
    </mxGraphModel>
  </diagram>
</mxfile>
